<svg aria-hidden="true" style="position: absolute; width: 0; height: 0; overflow: hidden;" version="1.1" xmlns="http://www.w3.org/2000/svg" xmlns:xlink="http://www.w3.org/1999/xlink">
<defs>
<symbol id="icon-repairs" viewBox="0 0 53 52">
<path d="M43.359 4.57c0-2.52-2.05-4.57-4.57-4.57H8.32C5.8 0 3.75 2.05 3.75 4.57v9.141c0 2.52 2.05 4.57 4.57 4.57h30.469c2.52 0 4.57-2.05 4.57-4.57v-1.523h1.523c.84 0 1.523.684 1.523 1.523v6.094c0 .84-.684 1.523-1.523 1.523H26.602c-2.52 0-4.57 2.05-4.57 4.57v4.57h-1.524c-.841 0-1.523.682-1.523 1.523v6.011l-1.524 6.192C16.47 48.157 19.464 52 23.555 52s7.083-3.847 6.095-7.799l-1.525-6.198v-6.011c0-.841-.682-1.523-1.523-1.523h-1.524v-4.57c0-.84.684-1.523 1.524-1.523h18.281c2.52 0 4.57-2.05 4.57-4.57v-6.094c0-2.52-2.05-4.57-4.57-4.57h-1.523V4.57zM25.078 33.516v3.148h-3.047v-3.148h3.047zm-1.523 15.438c-2.099 0-3.65-1.97-3.137-4.024l1.284-5.218h3.705l1.285 5.223c.51 2.04-1.031 4.019-3.138 4.019zM8.32 3.047h30.469c.84 0 1.523.684 1.523 1.523v1.523h-4.57c-1.481 0-3.374.555-5.566 1.197-2.961.867-6.317 1.85-9.668 1.85-3.267 0-5.57-.954-7.602-1.796-1.554-.643-3.021-1.251-4.586-1.251H6.797V4.57c0-.84.684-1.523 1.523-1.523zm31.992 10.664c0 .84-.684 1.524-1.523 1.524H8.32c-.84 0-1.523-.684-1.523-1.524v-4.57H8.32c.959 0 2.045.45 3.42 1.019 2.181.903 4.895 2.028 8.768 2.028 3.788 0 7.523-1.094 10.525-1.973 1.885-.552 3.666-1.074 4.71-1.074h4.57v4.57z"/>
</symbol>
<symbol id="icon-like" viewBox="0 0 48 48">
<path d="M44.017 29.719c.669-.747 1.077-1.734 1.077-2.813 0-2.326-1.893-4.219-4.219-4.219h-8.188c.811-2.461 1.157-5.726 1.157-7.126v-1.405c0-3.101-2.524-5.625-5.625-5.625h-1.406c-.645 0-1.207.439-1.364 1.065l-.766 3.065c-1.073 4.292-4.481 9.027-8.008 9.888-.618-1.564-2.143-2.674-3.924-2.674H4.313c-.776 0-1.406.63-1.406 1.406v25.313c0 .776.63 1.406 1.406 1.406h8.438c1.677 0 3.128-.983 3.808-2.405l4.832 1.611c1.58.527 3.226.794 4.892.794h11.781c2.326 0 4.219-1.893 4.219-4.219a4.2 4.2 0 0 0-.296-1.554c1.789-.489 3.109-2.128 3.109-4.071 0-1.079-.408-2.065-1.077-2.812.669-.747 1.077-1.733 1.077-2.813a4.2 4.2 0 0 0-1.077-2.812zm-29.86 14.062a1.41 1.41 0 0 1-1.406 1.406H5.719v-22.5h7.031a1.41 1.41 0 0 1 1.406 1.406V43.78zm23.906-12.656h2.813a1.41 1.41 0 0 1 1.406 1.406 1.41 1.41 0 0 1-1.406 1.406h-2.812c-.776 0-1.406.63-1.406 1.406s.63 1.406 1.406 1.406h2.813a1.41 1.41 0 0 1 1.406 1.406 1.41 1.41 0 0 1-1.406 1.406h-2.812c-.776 0-1.406.63-1.406 1.406s.63 1.406 1.406 1.406a1.41 1.41 0 0 1 1.406 1.406 1.41 1.41 0 0 1-1.406 1.406H26.282a12.63 12.63 0 0 1-4.003-.65l-5.31-1.77V25.367c2.206-.419 4.365-1.816 6.314-4.103 1.903-2.233 3.446-5.194 4.128-7.921l.5-2h.309c1.551 0 2.812 1.262 2.812 2.812v1.405c0 1.888-.591 5.51-1.346 7.126h-2.872c-.776 0-1.406.63-1.406 1.406s.63 1.406 1.406 1.406h14.063a1.41 1.41 0 0 1 1.406 1.406 1.41 1.41 0 0 1-1.406 1.406h-2.812c-.776 0-1.406.63-1.406 1.406s.63 1.406 1.406 1.406zM9.938 42.375c.777 0 1.406-.63 1.406-1.406s-.63-1.406-1.406-1.406-1.406.63-1.406 1.406.63 1.406 1.406 1.406zM29.625 0c-.777 0-1.406.63-1.406 1.406v2.906c0 .777.63 1.406 1.406 1.406s1.406-.63 1.406-1.406V1.406C31.031.63 30.402 0 29.625 0zm-5.966 6.201L21.67 4.213c-.549-.549-1.44-.549-1.989 0s-.549 1.44 0 1.989L21.67 8.19c.549.549 1.44.549 1.989 0s.549-1.44 0-1.989zm15.91-1.988c-.549-.549-1.44-.549-1.989 0l-1.989 1.989c-.549.549-.549 1.44 0 1.989s1.44.549 1.989 0l1.989-1.989c.549-.549.549-1.44 0-1.989z"/>
</symbol>
<symbol id="icon-construction" viewBox="0 0 53 52">
<path d="M50.977 27.523c.841 0 1.523-.682 1.523-1.523V14.625c0-.841-.682-1.523-1.523-1.523H28.023V3.25c0-.841-.682-1.523-1.523-1.523H10.25c-.841 0-1.523.682-1.523 1.523v9.852H2.023c-.841 0-1.523.682-1.523 1.523V26c0 .841.682 1.523 1.523 1.523h6.703v8.328H2.023c-.841 0-1.523.682-1.523 1.523V48.75c0 .841.682 1.523 1.523 1.523h48.953c.841 0 1.523-.682 1.523-1.523V37.375c0-.841-.682-1.523-1.523-1.523h-6.703v-8.328h6.703zm-1.523-3.047H36.148v-8.328h13.305v8.328zm-16.352 0H19.898v-8.328h13.203v8.328zM11.773 4.773h13.203v8.328H11.773V4.773zM3.547 24.477v-8.328h13.305v8.328H3.547zm8.227 3.047h13.203v8.328H11.773v-8.328zM3.547 38.898h13.305v8.328H3.547v-8.328zm16.352 0h13.203v8.328H19.898v-8.328zm29.555 0v8.328H36.148v-8.328h13.305zm-8.227-3.047H28.023v-8.328h13.203v8.328z"/></g><defs><clipPath id="A"><path fill="#fff" transform="translate(.5)" d="M0 0h52v52H0z"/></clipPath>
</symbol>
</defs>
</svg>
