<svg aria-hidden="true" style="position: absolute; width: 0; height: 0; overflow: hidden;" version="1.1" xmlns="http://www.w3.org/2000/svg" xmlns:xlink="http://www.w3.org/1999/xlink">
<defs>
<symbol id="icon-arrow_up" viewBox="0 0 20 20">
<path d="M6.172 12.852l-1.172-1.172 5-5 5 5-1.172 1.172-3.828-3.828z"></path>
</symbol>
<symbol id="icon-messenger" viewBox="0 0 20 20">
<path  d="M0 9.7c0-5.575 4.367-9.7 10-9.7s10 4.125 10 9.7-4.367 9.7-10 9.7c-1.008 0-1.983-0.133-2.892-0.383-0.062-0.017-0.134-0.027-0.208-0.027-0.118 0-0.23 0.025-0.33 0.071l0.005-0.002-1.992 0.875c-0.096 0.044-0.208 0.069-0.325 0.069-0.434 0-0.787-0.345-0.8-0.776l-0-0.001-0.058-1.783c-0.010-0.225-0.11-0.426-0.266-0.566l-0.001-0.001c-1.928-1.744-3.134-4.255-3.134-7.048 0-0.045 0-0.089 0.001-0.134l-0 0.007zM6.933 7.875l-2.933 4.667c-0.292 0.442 0.267 0.95 0.683 0.625l3.158-2.392c0.217-0.167 0.5-0.167 0.725 0l2.333 1.75c0.7 0.525 1.7 0.333 2.167-0.4l2.933-4.667c0.292-0.442-0.267-0.942-0.683-0.625l-3.158 2.392c-0.208 0.167-0.5 0.167-0.717 0l-2.333-1.75c-0.248-0.189-0.563-0.303-0.904-0.303-0.533 0-1.001 0.278-1.267 0.697l-0.004 0.006z"></path>
</symbol>
<symbol id="icon-heart" viewBox="0 0 20 20">
<path d="M18.571 6.652c0-3.136-2.121-3.795-3.906-3.795-1.663 0-3.538 1.797-4.118 2.489-0.268 0.324-0.826 0.324-1.094 0-0.58-0.692-2.455-2.489-4.118-2.489-1.786 0-3.906 0.658-3.906 3.795 0 2.042 2.065 3.94 2.087 3.962l6.484 6.25 6.473-6.239c0.033-0.033 2.098-1.931 2.098-3.973zM20 6.652c0 2.679-2.455 4.922-2.556 5.022l-6.953 6.696c-0.134 0.134-0.313 0.201-0.491 0.201s-0.357-0.067-0.491-0.201l-6.964-6.719c-0.089-0.078-2.545-2.321-2.545-5 0-3.27 1.998-5.223 5.335-5.223 1.953 0 3.783 1.54 4.665 2.411 0.882-0.871 2.712-2.411 4.665-2.411 3.337 0 5.335 1.953 5.335 5.223z"></path>
</symbol>
<symbol id="icon-youtube" viewBox="0 0 20 20">
<path d="M7.935 12.589l5.402-2.79-5.402-2.824v5.614zM10 2.969c4.208 0 6.998 0.201 6.998 0.201 0.391 0.045 1.25 0.045 2.009 0.848 0 0 0.614 0.603 0.792 1.987 0.212 1.618 0.201 3.237 0.201 3.237v1.518s0.011 1.618-0.201 3.237c-0.179 1.373-0.792 1.987-0.792 1.987-0.759 0.792-1.618 0.792-2.009 0.837 0 0-2.79 0.212-6.998 0.212v0c-5.201-0.045-6.797-0.201-6.797-0.201-0.446-0.078-1.451-0.056-2.21-0.848 0 0-0.614-0.614-0.792-1.987-0.212-1.618-0.201-3.237-0.201-3.237v-1.518s-0.011-1.618 0.201-3.237c0.179-1.384 0.792-1.987 0.792-1.987 0.759-0.804 1.618-0.804 2.009-0.848 0 0 2.79-0.201 6.998-0.201v0z"></path>
</symbol>
<symbol id="icon-twitter" viewBox="0 0 19 20">
<path d="M18.080 4.554c-0.491 0.714-1.105 1.35-1.808 1.864 0.011 0.156 0.011 0.313 0.011 0.469 0 4.766-3.627 10.257-10.257 10.257-2.042 0-3.94-0.592-5.536-1.618 0.29 0.033 0.569 0.045 0.871 0.045 1.685 0 3.237-0.569 4.475-1.54-1.585-0.033-2.913-1.071-3.371-2.5 0.223 0.033 0.446 0.056 0.681 0.056 0.324 0 0.647-0.045 0.949-0.123-1.652-0.335-2.891-1.786-2.891-3.538v-0.045c0.48 0.268 1.038 0.435 1.629 0.458-0.971-0.647-1.607-1.752-1.607-3.002 0-0.67 0.179-1.283 0.491-1.819 1.775 2.187 4.442 3.616 7.433 3.772-0.056-0.268-0.089-0.547-0.089-0.826 0-1.987 1.607-3.605 3.605-3.605 1.038 0 1.975 0.435 2.634 1.138 0.815-0.156 1.596-0.458 2.288-0.871-0.268 0.837-0.837 1.54-1.585 1.987 0.725-0.078 1.429-0.279 2.076-0.558z"></path>
</symbol>
<symbol id="icon-facebook" viewBox="0 0 12 20">
<path d="M10.703 0.134v2.946h-1.752c-1.373 0-1.629 0.658-1.629 1.607v2.109h3.27l-0.435 3.304h-2.835v8.471h-3.415v-8.471h-2.846v-3.304h2.846v-2.433c0-2.824 1.73-4.364 4.252-4.364 1.205 0 2.243 0.089 2.545 0.134z"></path>
</symbol>
<symbol id="icon-whatsapp" viewBox="0 0 17 20">
<path d="M10.993 10.871c0.19 0 2.009 0.949 2.087 1.083 0.022 0.056 0.022 0.123 0.022 0.167 0 0.279-0.089 0.592-0.19 0.848-0.257 0.625-1.295 1.027-1.931 1.027-0.536 0-1.641-0.469-2.121-0.692-1.596-0.725-2.589-1.964-3.549-3.382-0.424-0.625-0.804-1.395-0.792-2.165v-0.089c0.022-0.737 0.29-1.261 0.826-1.763 0.167-0.156 0.346-0.246 0.58-0.246 0.134 0 0.268 0.033 0.413 0.033 0.301 0 0.357 0.089 0.469 0.379 0.078 0.19 0.647 1.708 0.647 1.819 0 0.424-0.77 0.904-0.77 1.161 0 0.056 0.022 0.112 0.056 0.167 0.246 0.525 0.714 1.127 1.138 1.529 0.513 0.491 1.060 0.815 1.685 1.127 0.078 0.045 0.156 0.078 0.246 0.078 0.335 0 0.893-1.083 1.183-1.083zM8.728 16.786c3.862 0 7.009-3.147 7.009-7.009s-3.147-7.009-7.009-7.009-7.009 3.147-7.009 7.009c0 1.473 0.469 2.913 1.339 4.107l-0.882 2.6 2.701-0.859c1.138 0.748 2.489 1.161 3.85 1.161zM8.728 1.362c4.643 0 8.415 3.772 8.415 8.415s-3.772 8.415-8.415 8.415c-1.417 0-2.824-0.357-4.074-1.049l-4.654 1.496 1.518-4.52c-0.792-1.306-1.205-2.813-1.205-4.342 0-4.643 3.772-8.415 8.415-8.415z"></path>
</symbol>
<symbol id="icon-comfort" viewBox="0 0 48 48">
<path d="M38.054 2.09c-6.169-.648-11.716 3.843-12.364 10.012l-1.127 10.722a1.41 1.41 0 0 0 1.252 1.546l.466.049-1.176 11.188a9.39 9.39 0 0 0 8.344 10.304 9.39 9.39 0 0 0 10.304-8.344l1.176-11.188.466.049a1.41 1.41 0 0 0 1.546-1.252l1.127-10.722c.648-6.169-3.843-11.716-10.012-12.364zm-.294 2.797a8.45 8.45 0 0 1 7.509 9.273l-.392 3.73-16.783-1.764.392-3.73a8.45 8.45 0 0 1 9.273-7.509zM27.506 21.72l.294-2.797 16.783 1.764-.294 2.797-16.783-1.764zm13.448 15.553a6.57 6.57 0 0 1-7.213 5.84 6.57 6.57 0 0 1-5.841-7.212l1.176-11.188 13.053 1.372-1.176 11.188zm-8.783 2.849l3.729.392a1.41 1.41 0 0 0 1.546-1.252c.082-.773-.479-1.464-1.252-1.545l-3.729-.392a1.41 1.41 0 0 0-1.546 1.252c-.082.773.479 1.464 1.252 1.545zM9.947 2.09C3.778 2.738-.714 8.285-.065 14.454l1.127 10.722c.081.772.773 1.333 1.546 1.252l.466-.049L4.25 37.567a9.39 9.39 0 0 0 10.304 8.344 9.39 9.39 0 0 0 8.344-10.304l-1.176-11.188.466-.049c.772-.081 1.333-.773 1.252-1.546l-1.127-10.722C21.663 5.933 16.116 1.441 9.947 2.09zM3.712 23.484l-.294-2.797L20.2 18.923l.294 2.797-16.783 1.764zM20.1 35.901a6.57 6.57 0 0 1-5.84 7.212 6.57 6.57 0 0 1-7.213-5.841L5.871 26.085l13.053-1.372L20.1 35.901zm-.193-19.776L3.124 17.89l-.392-3.73a8.45 8.45 0 0 1 7.509-9.273 8.45 8.45 0 0 1 9.273 7.509l.392 3.729zM12.1 40.513l3.729-.392c.772-.081 1.333-.773 1.252-1.546s-.773-1.333-1.546-1.252l-3.729.392c-.772.081-1.333.773-1.252 1.546s.773 1.333 1.546 1.252z"/>
</symbol>
<symbol id="icon-chat" viewBox="0 0 40 40">
<path d="M36.539 17.611a12.92 12.92 0 0 1-1.634 4.645A6.22 6.22 0 0 1 35 23.333c0 1.255-.364 2.455-1.037 3.546-.336.545-.423 1.183-.456 1.604-.038.483-.025 1.012.009 1.52l.189 1.732-2.028-.532-1.651-.288c-.453-.047-1.106-.083-1.691.106a13.56 13.56 0 0 1-4.168.644c-1.763 0-3.383-.313-4.802-.857l-1.032.023a22.06 22.06 0 0 1-5.748-.752C15.213 33.121 19.546 35 24.166 35c1.805 0 3.537-.277 5.134-.786.056-.001.17-.003.383.019.334.035.764.112 1.26.223.987.223 2.097.551 2.961.826 1.834.582 3.61-1.018 3.282-2.879-.141-.801-.288-1.778-.345-2.625-.029-.426-.032-.775-.012-1.032a1.92 1.92 0 0 1 .026-.208c.938-1.553 1.477-3.322 1.477-5.205 0-2.123-.659-4.061-1.794-5.722z"/><path d="M9.328 9.497c-2.247 1.718-3.495 3.973-3.495 6.336 0 1.178.307 2.313.882 3.369a2.74 2.74 0 0 1 .304 1.097c.024.306.012.621-.014.915-.053.589-.18 1.256-.333 1.914l-.639 2.359 2.755-.914c.737-.215 1.482-.402 2.144-.506.571-.09 1.399-.179 2.112.068 1.601.554 3.391.867 5.288.867 3.579 0 6.757-1.111 9.005-2.83s3.495-3.973 3.495-6.336-1.248-4.618-3.495-6.336-5.426-2.83-9.005-2.83-6.757 1.111-9.005 2.83zM7.303 6.849c2.879-2.202 6.784-3.516 11.03-3.516s8.151 1.314 11.03 3.516 4.804 5.364 4.804 8.984-1.923 6.781-4.804 8.984-6.784 3.516-11.03 3.516c-2.238 0-4.377-.365-6.318-1.029-.002.005-.159-.01-.562.054-.464.073-1.057.217-1.732.414-1.342.392-2.85.946-3.998 1.393-1.989.774-4.016-1.136-3.346-3.172.355-1.079.774-2.442 1.047-3.619.138-.593.227-1.091.26-1.461a2.9 2.9 0 0 0 .014-.285c-.767-1.466-1.199-3.087-1.199-4.796 0-3.62 1.923-6.781 4.804-8.984zm-3.61 13.689z"/>
</symbol>
<symbol id="icon-arrow-right" viewBox="0 0 20 20">
<path d="M16.172 9l-6.071-6.071 1.414-1.414 8.485 8.485-8.485 8.485-1.414-1.414 6.071-6.071h-16.172v-2z"></path>
</symbol>
<symbol id="icon-arrow-left" viewBox="0 0 20 20">
<path d="M3.828 9l6.071-6.071-1.414-1.414-8.485 8.485 8.485 8.485 1.414-1.414-6.071-6.071h16.172v-2h-16.172z"></path>
</symbol>
<symbol id="icon-link" viewBox="0 0 512 512">
<path d="M192 192h88.553v45.391h1.266c12.32-22.097 42.479-45.391 87.421-45.391 93.473 0 110.76 58.188 110.76 133.867v154.133h-92.305v-136.639c0-32.592-0.667-74.513-48.014-74.513-48.074 0-55.41 35.493-55.41 72.146v139.006h-92.271v-288z"></path>
<path d="M32 192h96v288h-96v-288z"></path>
<path d="M128 112c0 26.51-21.49 48-48 48s-48-21.49-48-48c0-26.51 21.49-48 48-48s48 21.49 48 48z"></path>
</symbol>
</defs>
</svg>
