<!-- Generated by IcoMoon.io -->
<svg version="1.1" xmlns="http://www.w3.org/2000/svg" width="24" height="24" viewBox="0 0 24 24">
<title>x</title>
<path d="M4.411 5.589l4.411 4.411-4.411 4.411c-0.326 0.326-0.326 0.853 0 1.178s0.853 0.326 1.178 0l4.411-4.411 4.411 4.411c0.326 0.326 0.853 0.326 1.178 0s0.326-0.853 0-1.178l-4.411-4.411 4.411-4.411c0.326-0.326 0.326-0.853 0-1.178s-0.853-0.326-1.178 0l-4.411 4.411-4.411-4.411c-0.326-0.326-0.853-0.326-1.178 0s-0.326 0.853 0 1.178z" fill="#FF5A30"></path>
</svg>
