<!-- Generated by IcoMoon.io -->
<svg version="1.1" xmlns="http://www.w3.org/2000/svg" width="20" height="20" viewBox="0 0 20 20">
<title>heart-o</title>
<path d="M18.571 6.652c0-3.136-2.121-3.795-3.906-3.795-1.663 0-3.538 1.797-4.118 2.489-0.268 0.324-0.826 0.324-1.094 0-0.58-0.692-2.455-2.489-4.118-2.489-1.786 0-3.906 0.658-3.906 3.795 0 2.042 2.065 3.94 2.087 3.962l6.484 6.25 6.473-6.239c0.033-0.033 2.098-1.931 2.098-3.973zM20 6.652c0 2.679-2.455 4.922-2.556 5.022l-6.953 6.696c-0.134 0.134-0.313 0.201-0.491 0.201s-0.357-0.067-0.491-0.201l-6.964-6.719c-0.089-0.078-2.545-2.321-2.545-5 0-3.27 1.998-5.223 5.335-5.223 1.953 0 3.783 1.54 4.665 2.411 0.882-0.871 2.712-2.411 4.665-2.411 3.337 0 5.335 1.953 5.335 5.223z"></path>
</svg>
