<svg xmlns="http://www.w3.org/2000/svg" width="48" height="48" fill="#ff5a30" xmlns:v="https://vecta.io/nano"><path d="M38.054 2.09c-6.169-.648-11.716 3.843-12.364 10.012l-1.127 10.722a1.41 1.41 0 0 0 1.252 1.546l.466.049-1.176 11.188a9.39 9.39 0 0 0 8.344 10.304 9.39 9.39 0 0 0 10.304-8.344l1.176-11.188.466.049a1.41 1.41 0 0 0 1.546-1.252l1.127-10.722c.648-6.169-3.843-11.716-10.012-12.364zm-.294 2.797a8.45 8.45 0 0 1 7.509 9.273l-.392 3.73-16.783-1.764.392-3.73a8.45 8.45 0 0 1 9.273-7.509zM27.506 21.72l.294-2.797 16.783 1.764-.294 2.797-16.783-1.764zm13.448 15.553a6.57 6.57 0 0 1-7.213 5.84 6.57 6.57 0 0 1-5.841-7.212l1.176-11.188 13.053 1.372-1.176 11.188zm-8.783 2.849l3.729.392a1.41 1.41 0 0 0 1.546-1.252c.082-.773-.479-1.464-1.252-1.545l-3.729-.392a1.41 1.41 0 0 0-1.546 1.252c-.082.773.479 1.464 1.252 1.545zM9.947 2.09C3.778 2.738-.714 8.285-.065 14.454l1.127 10.722c.081.772.773 1.333 1.546 1.252l.466-.049L4.25 37.567a9.39 9.39 0 0 0 10.304 8.344 9.39 9.39 0 0 0 8.344-10.304l-1.176-11.188.466-.049c.772-.081 1.333-.773 1.252-1.546l-1.127-10.722C21.663 5.933 16.116 1.441 9.947 2.09zM3.712 23.484l-.294-2.797L20.2 18.923l.294 2.797-16.783 1.764zM20.1 35.901a6.57 6.57 0 0 1-5.84 7.212 6.57 6.57 0 0 1-7.213-5.841L5.871 26.085l13.053-1.372L20.1 35.901zm-.193-19.776L3.124 17.89l-.392-3.73a8.45 8.45 0 0 1 7.509-9.273 8.45 8.45 0 0 1 9.273 7.509l.392 3.729zM12.1 40.513l3.729-.392c.772-.081 1.333-.773 1.252-1.546s-.773-1.333-1.546-1.252l-3.729.392c-.772.081-1.333.773-1.252 1.546s.773 1.333 1.546 1.252z"/></svg>