<svg xmlns="http://www.w3.org/2000/svg" width="40" height="40" fill="#ff5a30" fill-rule="evenodd" xmlns:v="https://vecta.io/nano"><path d="M36.539 17.611a12.92 12.92 0 0 1-1.634 4.645A6.22 6.22 0 0 1 35 23.333c0 1.255-.364 2.455-1.037 3.546-.336.545-.423 1.183-.456 1.604-.038.483-.025 1.012.009 1.52l.189 1.732-2.028-.532-1.651-.288c-.453-.047-1.106-.083-1.691.106a13.56 13.56 0 0 1-4.168.644c-1.763 0-3.383-.313-4.802-.857l-1.032.023a22.06 22.06 0 0 1-5.748-.752C15.213 33.121 19.546 35 24.166 35c1.805 0 3.537-.277 5.134-.786.056-.001.17-.003.383.019.334.035.764.112 1.26.223.987.223 2.097.551 2.961.826 1.834.582 3.61-1.018 3.282-2.879-.141-.801-.288-1.778-.345-2.625-.029-.426-.032-.775-.012-1.032a1.92 1.92 0 0 1 .026-.208c.938-1.553 1.477-3.322 1.477-5.205 0-2.123-.659-4.061-1.794-5.722z"/><path d="M9.328 9.497c-2.247 1.718-3.495 3.973-3.495 6.336 0 1.178.307 2.313.882 3.369a2.74 2.74 0 0 1 .304 1.097c.024.306.012.621-.014.915-.053.589-.18 1.256-.333 1.914l-.639 2.359 2.755-.914c.737-.215 1.482-.402 2.144-.506.571-.09 1.399-.179 2.112.068 1.601.554 3.391.867 5.288.867 3.579 0 6.757-1.111 9.005-2.83s3.495-3.973 3.495-6.336-1.248-4.618-3.495-6.336-5.426-2.83-9.005-2.83-6.757 1.111-9.005 2.83zM7.303 6.849c2.879-2.202 6.784-3.516 11.03-3.516s8.151 1.314 11.03 3.516 4.804 5.364 4.804 8.984-1.923 6.781-4.804 8.984-6.784 3.516-11.03 3.516c-2.238 0-4.377-.365-6.318-1.029-.002.005-.159-.01-.562.054-.464.073-1.057.217-1.732.414-1.342.392-2.85.946-3.998 1.393-1.989.774-4.016-1.136-3.346-3.172.355-1.079.774-2.442 1.047-3.619.138-.593.227-1.091.26-1.461a2.9 2.9 0 0 0 .014-.285c-.767-1.466-1.199-3.087-1.199-4.796 0-3.62 1.923-6.781 4.804-8.984zm-3.61 13.689z"/></svg>