<!-- Generated by IcoMoon.io -->
<svg version="1.1" xmlns="http://www.w3.org/2000/svg" width="20" height="20" viewBox="0 0 20 20">
<title>messenger</title>
<path fill="#00b2ff" d="M0 9.7c0-5.575 4.367-9.7 10-9.7s10 4.125 10 9.7-4.367 9.7-10 9.7c-1.008 0-1.983-0.133-2.892-0.383-0.062-0.017-0.134-0.027-0.208-0.027-0.118 0-0.23 0.025-0.33 0.071l0.005-0.002-1.992 0.875c-0.096 0.044-0.208 0.069-0.325 0.069-0.434 0-0.787-0.345-0.8-0.776l-0-0.001-0.058-1.783c-0.010-0.225-0.11-0.426-0.266-0.566l-0.001-0.001c-1.928-1.744-3.134-4.255-3.134-7.048 0-0.045 0-0.089 0.001-0.134l-0 0.007zM6.933 7.875l-2.933 4.667c-0.292 0.442 0.267 0.95 0.683 0.625l3.158-2.392c0.217-0.167 0.5-0.167 0.725 0l2.333 1.75c0.7 0.525 1.7 0.333 2.167-0.4l2.933-4.667c0.292-0.442-0.267-0.942-0.683-0.625l-3.158 2.392c-0.208 0.167-0.5 0.167-0.717 0l-2.333-1.75c-0.248-0.189-0.563-0.303-0.904-0.303-0.533 0-1.001 0.278-1.267 0.697l-0.004 0.006z"></path>
</svg>
