<!-- Generated by IcoMoon.io -->
<svg version="1.1" xmlns="http://www.w3.org/2000/svg" width="17" height="20" viewBox="0 0 17 20">
<title>whatsapp</title>
<path d="M10.993 10.871c0.19 0 2.009 0.949 2.087 1.083 0.022 0.056 0.022 0.123 0.022 0.167 0 0.279-0.089 0.592-0.19 0.848-0.257 0.625-1.295 1.027-1.931 1.027-0.536 0-1.641-0.469-2.121-0.692-1.596-0.725-2.589-1.964-3.549-3.382-0.424-0.625-0.804-1.395-0.792-2.165v-0.089c0.022-0.737 0.29-1.261 0.826-1.763 0.167-0.156 0.346-0.246 0.58-0.246 0.134 0 0.268 0.033 0.413 0.033 0.301 0 0.357 0.089 0.469 0.379 0.078 0.19 0.647 1.708 0.647 1.819 0 0.424-0.77 0.904-0.77 1.161 0 0.056 0.022 0.112 0.056 0.167 0.246 0.525 0.714 1.127 1.138 1.529 0.513 0.491 1.060 0.815 1.685 1.127 0.078 0.045 0.156 0.078 0.246 0.078 0.335 0 0.893-1.083 1.183-1.083zM8.728 16.786c3.862 0 7.009-3.147 7.009-7.009s-3.147-7.009-7.009-7.009-7.009 3.147-7.009 7.009c0 1.473 0.469 2.913 1.339 4.107l-0.882 2.6 2.701-0.859c1.138 0.748 2.489 1.161 3.85 1.161zM8.728 1.362c4.643 0 8.415 3.772 8.415 8.415s-3.772 8.415-8.415 8.415c-1.417 0-2.824-0.357-4.074-1.049l-4.654 1.496 1.518-4.52c-0.792-1.306-1.205-2.813-1.205-4.342 0-4.643 3.772-8.415 8.415-8.415z"></path>
</svg>
