<!-- Generated by IcoMoon.io -->
<svg version="1.1" xmlns="http://www.w3.org/2000/svg" width="20" height="20" viewBox="0 0 20 20">
<title>youtube-play</title>
<path d="M7.935 12.589l5.402-2.79-5.402-2.824v5.614zM10 2.969c4.208 0 6.998 0.201 6.998 0.201 0.391 0.045 1.25 0.045 2.009 0.848 0 0 0.614 0.603 0.792 1.987 0.212 1.618 0.201 3.237 0.201 3.237v1.518s0.011 1.618-0.201 3.237c-0.179 1.373-0.792 1.987-0.792 1.987-0.759 0.792-1.618 0.792-2.009 0.837 0 0-2.79 0.212-6.998 0.212v0c-5.201-0.045-6.797-0.201-6.797-0.201-0.446-0.078-1.451-0.056-2.21-0.848 0 0-0.614-0.614-0.792-1.987-0.212-1.618-0.201-3.237-0.201-3.237v-1.518s-0.011-1.618 0.201-3.237c0.179-1.384 0.792-1.987 0.792-1.987 0.759-0.804 1.618-0.804 2.009-0.848 0 0 2.79-0.201 6.998-0.201v0z"></path>
</svg>
