<svg xmlns="http://www.w3.org/2000/svg" width="48" height="48" fill="#ff5a30" xmlns:v="https://vecta.io/nano"><path d="M44.017 29.719c.669-.747 1.077-1.734 1.077-2.813 0-2.326-1.893-4.219-4.219-4.219h-8.188c.811-2.461 1.157-5.726 1.157-7.126v-1.405c0-3.101-2.524-5.625-5.625-5.625h-1.406c-.645 0-1.207.439-1.364 1.065l-.766 3.065c-1.073 4.292-4.481 9.027-8.008 9.888-.618-1.564-2.143-2.674-3.924-2.674H4.313c-.776 0-1.406.63-1.406 1.406v25.313c0 .776.63 1.406 1.406 1.406h8.438c1.677 0 3.128-.983 3.808-2.405l4.832 1.611c1.58.527 3.226.794 4.892.794h11.781c2.326 0 4.219-1.893 4.219-4.219a4.2 4.2 0 0 0-.296-1.554c1.789-.489 3.109-2.128 3.109-4.071 0-1.079-.408-2.065-1.077-2.812.669-.747 1.077-1.733 1.077-2.813a4.2 4.2 0 0 0-1.077-2.812zm-29.86 14.062a1.41 1.41 0 0 1-1.406 1.406H5.719v-22.5h7.031a1.41 1.41 0 0 1 1.406 1.406V43.78zm23.906-12.656h2.813a1.41 1.41 0 0 1 1.406 1.406 1.41 1.41 0 0 1-1.406 1.406h-2.812c-.776 0-1.406.63-1.406 1.406s.63 1.406 1.406 1.406h2.813a1.41 1.41 0 0 1 1.406 1.406 1.41 1.41 0 0 1-1.406 1.406h-2.812c-.776 0-1.406.63-1.406 1.406s.63 1.406 1.406 1.406a1.41 1.41 0 0 1 1.406 1.406 1.41 1.41 0 0 1-1.406 1.406H26.282a12.63 12.63 0 0 1-4.003-.65l-5.31-1.77V25.367c2.206-.419 4.365-1.816 6.314-4.103 1.903-2.233 3.446-5.194 4.128-7.921l.5-2h.309c1.551 0 2.812 1.262 2.812 2.812v1.405c0 1.888-.591 5.51-1.346 7.126h-2.872c-.776 0-1.406.63-1.406 1.406s.63 1.406 1.406 1.406h14.063a1.41 1.41 0 0 1 1.406 1.406 1.41 1.41 0 0 1-1.406 1.406h-2.812c-.776 0-1.406.63-1.406 1.406s.63 1.406 1.406 1.406zM9.938 42.375c.777 0 1.406-.63 1.406-1.406s-.63-1.406-1.406-1.406-1.406.63-1.406 1.406.63 1.406 1.406 1.406zM29.625 0c-.777 0-1.406.63-1.406 1.406v2.906c0 .777.63 1.406 1.406 1.406s1.406-.63 1.406-1.406V1.406C31.031.63 30.402 0 29.625 0zm-5.966 6.201L21.67 4.213c-.549-.549-1.44-.549-1.989 0s-.549 1.44 0 1.989L21.67 8.19c.549.549 1.44.549 1.989 0s.549-1.44 0-1.989zm15.91-1.988c-.549-.549-1.44-.549-1.989 0l-1.989 1.989c-.549.549-.549 1.44 0 1.989s1.44.549 1.989 0l1.989-1.989c.549-.549.549-1.44 0-1.989z"/></svg>