<svg xmlns="http://www.w3.org/2000/svg" width="53" height="52" fill="none" xmlns:v="https://vecta.io/nano"><path d="M43.359 4.57c0-2.52-2.05-4.57-4.57-4.57H8.32C5.8 0 3.75 2.05 3.75 4.57v9.141c0 2.52 2.05 4.57 4.57 4.57h30.469c2.52 0 4.57-2.05 4.57-4.57v-1.523h1.523c.84 0 1.523.684 1.523 1.523v6.094c0 .84-.684 1.523-1.523 1.523H26.602c-2.52 0-4.57 2.05-4.57 4.57v4.57h-1.524c-.841 0-1.523.682-1.523 1.523v6.011l-1.524 6.192C16.47 48.157 19.464 52 23.555 52s7.083-3.847 6.095-7.799l-1.525-6.198v-6.011c0-.841-.682-1.523-1.523-1.523h-1.524v-4.57c0-.84.684-1.523 1.524-1.523h18.281c2.52 0 4.57-2.05 4.57-4.57v-6.094c0-2.52-2.05-4.57-4.57-4.57h-1.523V4.57zM25.078 33.516v3.148h-3.047v-3.148h3.047zm-1.523 15.438c-2.099 0-3.65-1.97-3.137-4.024l1.284-5.218h3.705l1.285 5.223c.51 2.04-1.031 4.019-3.138 4.019zM8.32 3.047h30.469c.84 0 1.523.684 1.523 1.523v1.523h-4.57c-1.481 0-3.374.555-5.566 1.197-2.961.867-6.317 1.85-9.668 1.85-3.267 0-5.57-.954-7.602-1.796-1.554-.643-3.021-1.251-4.586-1.251H6.797V4.57c0-.84.684-1.523 1.523-1.523zm31.992 10.664c0 .84-.684 1.524-1.523 1.524H8.32c-.84 0-1.523-.684-1.523-1.524v-4.57H8.32c.959 0 2.045.45 3.42 1.019 2.181.903 4.895 2.028 8.768 2.028 3.788 0 7.523-1.094 10.525-1.973 1.885-.552 3.666-1.074 4.71-1.074h4.57v4.57z" fill="#ff5a30"/></svg>