<svg xmlns="http://www.w3.org/2000/svg" width="40" height="40" fill="none" xmlns:v="https://vecta.io/nano"><path fill-rule="evenodd" d="M14.166 4.869a2.5 2.5 0 0 0-2.5 2.5v25.26a2.5 2.5 0 0 0 2.5 2.5h11.667a2.5 2.5 0 0 0 2.5-2.5V7.369a2.5 2.5 0 0 0-2.5-2.5h-.139l-.406.974c-.259.621-.866 1.026-1.538 1.026h-7.5c-.673 0-1.28-.405-1.538-1.026l-.406-.974h-.139zm-5.833 2.5c0-3.222 2.612-5.833 5.833-5.833h11.667c3.222 0 5.833 2.612 5.833 5.833v25.26c0 3.222-2.612 5.833-5.833 5.833H14.166c-3.222 0-5.833-2.612-5.833-5.833V7.369z" fill="#ff5a30"/></svg>