<svg xmlns="http://www.w3.org/2000/svg" width="53" height="52" fill="none" xmlns:v="https://vecta.io/nano"><g clip-path="url(#A)" fill="#ff5a30"><path d="M11.266 36.664c-2.52 0-4.57 2.05-4.57 4.57s2.05 4.57 4.57 4.57 4.57-2.05 4.57-4.57-2.05-4.57-4.57-4.57zm0 6.094c-.84 0-1.523-.683-1.523-1.523s.683-1.523 1.523-1.523 1.524.683 1.524 1.523-.683 1.523-1.524 1.523zM49.75 30.95c1.039-1.406 1.231-3.368.286-5.004l-6.091-10.651c-1.054-1.825-3.275-2.658-5.257-2.128a4.58 4.58 0 0 0-2.176-4.954L25.958 2.12c-1.507-.87-3.309-.781-4.696.076A4.57 4.57 0 0 0 17.359 0H5.07C2.55 0 .5 2.05.5 4.57v42.86C.5 49.95 2.55 52 5.07 52h42.86c2.52 0 4.57-2.05 4.57-4.57V35.141c0-1.873-1.133-3.486-2.75-4.191zM18.883 47.43c0 .84-.683 1.523-1.523 1.523H5.07c-.84 0-1.523-.683-1.523-1.523V33.617h15.336V47.43zm0-16.859H3.547v-12.29h15.336V30.57zm0-15.336H3.547V4.57c0-.84.683-1.523 1.523-1.523h12.289c.84 0 1.523.683 1.523 1.523v10.664zM21.93 6.05l.424-.734c.42-.728 1.354-.978 2.082-.558l10.554 6.093c.728.42.978 1.354.557 2.084l-1.76 3.06c-.044.065-.084.133-.117.203L21.93 36.603V6.05zm0 36.663l14.241-24.754 2.945-1.7c.746-.431 1.77-.169 2.188.555l6.091 10.651a1.53 1.53 0 0 1-.562 2.091L21.93 43.971v-1.258zm27.523 4.717c0 .84-.683 1.523-1.523 1.523H21.668a4.55 4.55 0 0 0 .261-1.46l23.967-13.875h2.034c.84 0 1.523.683 1.523 1.523V47.43z"/></g><defs><clipPath id="A"><path fill="#fff" transform="translate(.5)" d="M0 0h52v52H0z"/></clipPath></defs></svg>